<svg xmlns="http://www.w3.org/2000/svg" xmlns:xlink="http://www.w3.org/1999/xlink" fill="none" version="1.1" width="120" height="120" viewBox="0 0 120 120"><defs><clipPath id="master_svg0_11_08092"><rect x="0" y="0" width="120" height="120" rx="0"/></clipPath><linearGradient x1="0" y1="0" x2="1" y2="1" id="master_svg1_2_4772"><stop offset="0%" stop-color="#EA3966" stop-opacity="1"/><stop offset="41.8508917093277%" stop-color="#B11D36" stop-opacity="1"/><stop offset="98.27946424484253%" stop-color="#740707" stop-opacity="1"/></linearGradient></defs><g clip-path="url(#master_svg0_11_08092)"><rect x="0" y="0" width="120" height="120" rx="0" fill="#FFFFFF" fill-opacity="1"/><g><rect x="0" y="0" width="120" height="120" rx="0" fill="url(#master_svg1_2_4772)" fill-opacity="1"/></g><g><g><rect x="0" y="0" width="120" height="120" rx="0" fill="#FFFFFF" fill-opacity="1"/></g><g><g><path d="M15,34L20.44737,56L25.2895,56L27.1053,47.4444L28.9211,56L33.7632,56L38,34L33.1579,34L30.736800000000002,47.4444L27.1053,40.11111L23.47368,47.4444L19.842109999999998,34L15,34Z" fill="#BABABA" fill-opacity="1"/><path d="" fill="#FFFFFF" fill-opacity="1"/></g><g><path d="M42,56.5L47.53846,56.5Q47.53845,50.5,47.53845,46.5C47.53845,42.5,55.153800000000004,43,55.153800000000004,46.5L55.153800000000004,56.5L60,56.5L60,45.0926Q60,40.18518,53.0769,38.87036Q48.92308,38.87036,47.53846,40.42592L47.53845,31L42,31L42,56.5Z" fill="#BABABA" fill-opacity="1"/><path d="" fill="#FFFFFF" fill-opacity="1"/></g><g><path d="M66.45455,41.45455C63.181818,44.72727,63.181818,51.2727,66.45455,54.545500000000004C69.72727,57.818200000000004,76.2727,57.818200000000004,79.5455,54.545500000000004C82.8182,51.2727,82.8182,44.72727,79.5455,41.45455C76.2727,38.181818,69.72727,38.181818,66.45455,41.45455ZM69.99008,44.99008Q69,45.98016,69,48Q69,50.019800000000004,69.99008,51.0099Q70.98016,52,73,52Q75.0198,52,76.0099,51.0099Q77,50.019800000000004,77,48Q77,45.98016,76.0099,44.99008Q75.0198,44,73,44Q70.98016,44,69.99008,44.99008Z" fill-rule="evenodd" fill="#BABABA" fill-opacity="1"/></g><g><path d="M85.5625,53.5625C84.8125,54.3125,84.8125,55.8125,85.5625,56.5625C86.3125,57.3125,87.8125,57.3125,88.5625,56.5625C89.3125,55.8125,89.3125,54.3125,88.5625,53.5625C87.8125,52.8125,86.3125,52.8125,85.5625,53.5625Z" fill="#FF0000" fill-opacity="1"/><path d="" fill="#FFFFFF" fill-opacity="1"/></g><g><path d="M18,65L18,68.9L23.46429,68.9L23.46429,83L18,83L18,87L35,87L35,83L29.5357,83L29.5357,68.9L35,68.9L35,65L18,65Z" fill="#BABABA" fill-opacity="1"/><path d="" fill="#FFFFFF" fill-opacity="1"/></g><g><path d="M44,87L38,87L50.5,64L62,87L56,87L54.370400000000004,83L45.92593,83L44,87ZM48.0926,78.5L52.537,78.5L50.5,73.5L48.0926,78.5Z" fill-rule="evenodd" fill="#BABABA" fill-opacity="1"/><path d="" fill="#D8D8D8" fill-opacity="1"/></g><g><path d="M64,87L69,87L69,72L75,81L81,72L81,87L86,87L86,65L85,65L81,65L75,73L69,65L65,65L64,65L64,87Z" fill="#BABABA" fill-opacity="1"/><path d="" fill="#D8D8D8" fill-opacity="1"/></g></g></g></g></svg>